<svg width="202" height="130" viewBox="0 0 202 130" fill="none" xmlns="http://www.w3.org/2000/svg">
<path d="M119.28 122.42C121.92 126.98 126.78 129.79 132.05 129.79H187.18C195.33 129.79 201.93 123.19 201.93 115.04C201.93 106.89 195.33 100.29 187.18 100.29H132.05C120.7 100.29 113.6 112.58 119.28 122.42Z" fill="url(#paint0_linear_318_8)"/>
<path d="M137.199 2.89993C130.139 -1.17007 121.119 1.23993 117.049 8.29993L84.0894 65.3899C80.0194 72.4499 82.4294 81.4699 89.4894 85.5399C96.5394 89.6099 105.559 87.1899 109.639 80.1399L142.599 23.0499C146.669 15.9999 144.259 6.97993 137.199 2.89993Z" fill="url(#paint1_linear_318_8)"/>
<path d="M60.79 65.3997L27.8896 8.2997C23.8196 1.2497 14.7996 -1.1703 7.73962 2.8997H7.72962C0.669617 6.9697 -1.74038 15.9897 2.32962 23.0497L35.2296 80.1397C37.8596 84.6997 42.7296 87.5097 48 87.5097H48.01C59.37 87.5197 66.47 75.2297 60.79 65.3997Z" fill="url(#paint2_linear_318_8)"/>
<defs>
<linearGradient id="paint0_linear_318_8" x1="117.354" y1="1575.33" x2="8582.65" y2="1575.33" gradientUnits="userSpaceOnUse">
<stop stop-color="#00E1FF"/>
<stop offset="1" stop-color="#00B8FF"/>
</linearGradient>
<linearGradient id="paint1_linear_318_8" x1="81.4774" y1="4330.98" x2="6328.92" y2="4330.98" gradientUnits="userSpaceOnUse">
<stop stop-color="#00E1FF"/>
<stop offset="1" stop-color="#00B8FF"/>
</linearGradient>
<linearGradient id="paint2_linear_318_8" x1="0.567218" y1="4330.76" x2="6244.13" y2="4330.76" gradientUnits="userSpaceOnUse">
<stop stop-color="#00E1FF"/>
<stop offset="1" stop-color="#00B8FF"/>
</linearGradient>
</defs>
</svg>
