<?xml version="1.0" encoding="UTF-8"?>
<svg width="1072px" height="230px" viewBox="0 0 1072 230" version="1.1" xmlns="http://www.w3.org/2000/svg" xmlns:xlink="http://www.w3.org/1999/xlink">
    <!-- Generator: Sketch 55.2 (78181) - https://sketchapp.com -->
    <title>Group</title>
    <desc>Created with Sketch.</desc>
    <defs>
        <linearGradient x1="0%" y1="49.9994351%" x2="99.9994544%" y2="49.9994351%" id="linearGradient-1">
            <stop stop-color="#2E84FC" offset="0%"></stop>
            <stop stop-color="#035DDB" offset="100%"></stop>
        </linearGradient>
        <linearGradient x1="0.000862448732%" y1="50.0013559%" x2="100.005316%" y2="50.0013559%" id="linearGradient-2">
            <stop stop-color="#00E1FF" offset="0%"></stop>
            <stop stop-color="#00B8FF" offset="100%"></stop>
        </linearGradient>
        <linearGradient x1="-0.0101560444%" y1="50.0041464%" x2="100.003112%" y2="50.0041464%" id="linearGradient-3">
            <stop stop-color="#00E1FF" offset="0%"></stop>
            <stop stop-color="#00B8FF" offset="100%"></stop>
        </linearGradient>
        <linearGradient x1="0.00345293486%" y1="50.0062763%" x2="100.000979%" y2="50.0062763%" id="linearGradient-4">
            <stop stop-color="#00E1FF" offset="0%"></stop>
            <stop stop-color="#00B8FF" offset="100%"></stop>
        </linearGradient>
    </defs>
    <g id="Page-1" stroke="none" stroke-width="1" fill="none" fill-rule="evenodd">
        <g id="LEADSTER_LOGO_01" transform="translate(0.000000, -569.000000)" fill-rule="nonzero">
            <g id="Group" transform="translate(0.000000, 569.000000)">
                <g id="Path">
                    <path d="M194.2,227.18 L194.2,227.18 C187.14,231.25 178.12,228.84 174.05,221.78 L129.47,144.54 L84.89,221.77 C80.82,228.83 71.79,231.24 64.74,227.17 L64.74,227.17 C57.68,223.1 55.26,214.07 59.34,207.02 L103.92,129.79 L14.75,129.79 C6.6,129.79 0,123.19 0,115.04 L0,115.04 C0,106.89 6.6,100.29 14.75,100.29 L129.47,100.29 C134.74,100.29 139.61,103.1 142.24,107.67 L199.6,207.03 C203.68,214.08 201.26,223.1 194.2,227.18 Z" fill="url(#linearGradient-1)"></path>
                    <path d="M176.28,122.42 L176.28,122.42 C178.92,126.98 183.78,129.79 189.05,129.79 L244.18,129.79 C252.33,129.79 258.93,123.19 258.93,115.04 L258.93,115.04 C258.93,106.89 252.33,100.29 244.18,100.29 L189.05,100.29 C177.7,100.29 170.6,112.58 176.28,122.42 Z" fill="url(#linearGradient-2)"></path>
                    <path d="M194.2,2.9 L194.2,2.9 C187.14,-1.17 178.12,1.24 174.05,8.3 L141.09,65.39 C137.02,72.45 139.43,81.47 146.49,85.54 L146.49,85.54 C153.54,89.61 162.56,87.19 166.64,80.14 L199.6,23.05 C203.67,16 201.26,6.98 194.2,2.9 Z" fill="url(#linearGradient-3)"></path>
                    <path d="M117.79,65.4 L84.89,8.3 C80.82,1.25 71.8,-1.17 64.74,2.9 L64.73,2.9 C57.67,6.97 55.26,15.99 59.33,23.05 L92.23,80.14 C94.86,84.7 99.73,87.5100061 105,87.5100061 L105.01,87.5100061 C116.37,87.52 123.47,75.23 117.79,65.4 Z" fill="url(#linearGradient-4)"></path>
                </g>
                <g transform="translate(342.000000, 33.000000)" fill="#191919">
                    <polygon id="Path" points="92.77 129.75 0.33 129.75 0.33 5.07 27.45 5.07 27.45 106.38 92.78 106.38 92.78 129.75"></polygon>
                    <path d="M96.52,83.19 C96.52,44.64 129.95,34.41 147.52,34.41 C171.57,34.41 195.62,50.78 196.47,80.97 C196.47,88.13 195.96,92.74 195.96,92.74 L121.94,92.74 C125.01,108.09 142.41,109.8 147.52,109.8 C161.68,109.8 168.67,102.13 171.57,98.88 L191.36,110.31 C187.61,115.43 174.99,132.14 147.53,132.14 C129.27,132.14 96.52,121.74 96.52,83.19 Z M122.61,74.66 L169.51,74.66 C168.49,66.13 160.13,56.75 147.34,56.75 C132.68,56.75 123.64,65.11 122.61,74.66 Z" id="Shape"></path>
                    <path d="M278,120.37 C274.08,125.66 262.82,131.8 249.52,131.8 C219.84,131.8 202.44,109.8 202.44,82.85 C202.44,55.9 219.84,33.9 249.52,33.9 C263.16,33.9 273.23,39.36 278,45.67 L278,35.95 L303.24,35.95 L303.24,129.76 L278,129.76 L278,120.37 Z M253.27,56.24 C237.07,56.24 227.52,67.5 227.52,82.85 C227.52,97.69 237.58,109.29 253.27,109.29 C269.13,109.29 279.02,99.23 279.02,82.85 C279.02,67.33 269.13,56.24 253.27,56.24 Z" id="Shape"></path>
                    <path d="M385.96,120.37 C382.04,125.66 370.78,131.8 357.48,131.8 C327.8,131.8 310.4,109.8 310.4,82.85 C310.4,55.9 327.8,33.9 357.48,33.9 C371.13,33.9 381.19,39.36 385.96,45.67 L385.96,0.81 L411.2,0.81 L411.2,129.76 L385.96,129.76 L385.96,120.37 Z M361.23,56.24 C345.03,56.24 335.48,67.5 335.48,82.85 C335.48,97.69 345.54,109.29 361.23,109.29 C377.09,109.29 386.98,99.23 386.98,82.85 C386.99,67.33 377.09,56.24 361.23,56.24 Z" id="Shape"></path>
                    <path d="M419.22,117.3 L432.52,99.56 C439.85,104.51 451.62,109.62 462.88,109.62 C470.73,109.62 476.35,106.04 476.35,101.26 C476.35,94.95 463.22,94.27 458.27,93.41 C445.48,91.19 421.09,87.44 421.09,63.9 C421.09,36.44 450.77,34.22 459.81,34.22 C474.65,34.22 486.59,38.48 498.87,47.69 L485.57,65.09 C478.58,61 469.37,56.39 458.96,56.39 C454.01,56.39 446.68,58.78 446.68,63.38 C446.68,69.69 460.32,71.23 464.42,71.74 C480.28,74.47 501.77,77.2 501.77,101.42 C501.77,120.86 487.78,131.950046 463.22,131.950046 C443.1,131.97 429.46,125.49 419.22,117.3 Z" id="Path"></path>
                    <path d="M541.69,96.32 C541.69,101.44 541.86,110.31 553.29,110.31 C556.19,110.31 558.24,110.14 559.77,109.97 L559.77,131.46 C556.7,131.8 551.92,132.14 548.34,132.14 C528.55,132.14 516.45,128.56 516.45,108.77 L516.45,56.75 L505.02,56.75 L505.02,34.41 L516.45,34.41 L516.45,9.34 L541.69,9.34 L541.69,34.41 L560.45,34.41 L560.45,56.75 L541.69,56.75 L541.69,96.32 L541.69,96.32 Z" id="Path"></path>
                    <path d="M563.69,83.19 C563.69,44.64 597.12,34.41 614.69,34.41 C638.74,34.41 662.79,50.78 663.64,80.97 C663.64,88.13 663.13,92.74 663.13,92.74 L589.1,92.74 C592.17,108.09 609.57,109.8 614.68,109.8 C628.84,109.8 635.83,102.13 638.73,98.88 L658.52,110.31 C654.77,115.43 642.15,132.14 614.69,132.14 C596.43,132.14 563.69,121.74 563.69,83.19 Z M589.78,74.66 L636.68,74.66 C635.66,66.13 627.3,56.75 614.51,56.75 C599.84,56.75 590.81,65.11 589.78,74.66 Z" id="Shape"></path>
                    <path d="M697.41,88.31 L697.41,129.76 L672,129.76 L672,35.95 L697.41,35.95 L697.41,48.4 C706.96,35.78 722.82,34.07 729.48,34.24 L729.48,59.14 C723.33,58.63 697.41,59.82 697.41,88.31 Z" id="Path"></path>
                </g>
            </g>
        </g>
    </g>
</svg>